<svg xmlns="http://www.w3.org/2000/svg" viewBox="0 0 256 256">
  <defs>
    <linearGradient id="grad" x1="0%" y1="0%" x2="100%" y2="100%">
      <stop offset="0%" style="stop-color:#00ffff;stop-opacity:1" />
      <stop offset="100%" style="stop-color:#6b00ff;stop-opacity:1" />
    </linearGradient>
  </defs>
  <rect width="256" height="256" fill="#0a0a0a"/>
  <path d="M60 50 L140 50 Q170 50 170 80 Q170 100 155 110 L180 160 L140 160 L120 115 L100 115 L100 160 L60 160 Z M100 85 L130 85 Q140 85 140 75 Q140 65 130 65 L100 65 Z" fill="url(#grad)"/>
  <path d="M165 120 L185 90 L205 90 L175 135 L195 180 L175 180 L155 145 L145 160 L145 140 Z" fill="#00ffff" opacity="0.9"/>
</svg>